<?xml version="1.0" encoding="UTF-8"?>
<svg id="Layer_2" data-name="Layer 2" xmlns="http://www.w3.org/2000/svg" viewBox="0 0 496.64 500">
  <defs>
    <style>
      .cls-1 {
        fill: #fdfafd;
      }

      .cls-1, .cls-2, .cls-3, .cls-4, .cls-5, .cls-6, .cls-7, .cls-8, .cls-9, .cls-10, .cls-11, .cls-12, .cls-13, .cls-14, .cls-15, .cls-16, .cls-17, .cls-18, .cls-19, .cls-20, .cls-21, .cls-22, .cls-23, .cls-24, .cls-25, .cls-26, .cls-27, .cls-28, .cls-29, .cls-30, .cls-31, .cls-32, .cls-33, .cls-34, .cls-35 {
        stroke-width: 0px;
      }

      .cls-2 {
        fill: #fefcfe;
      }

      .cls-3 {
        fill: #132a38;
      }

      .cls-4 {
        fill: #cbe2ea;
      }

      .cls-5 {
        fill: #fdfdfd;
      }

      .cls-6 {
        fill: #fdfbfd;
      }

      .cls-7 {
        fill: #fefcfd;
      }

      .cls-8 {
        fill: #547f9b;
      }

      .cls-9 {
        fill: #071726;
      }

      .cls-10 {
        fill: #628ba6;
      }

      .cls-11 {
        fill: #fdfcfc;
      }

      .cls-12 {
        fill: #fcfdfc;
      }

      .cls-13 {
        fill: #fdfafe;
      }

      .cls-14 {
        fill: #5c88a3;
      }

      .cls-15 {
        fill: #7cabbf;
      }

      .cls-16 {
        fill: #031b2d;
      }

      .cls-17 {
        fill: #8db8cb;
      }

      .cls-18 {
        fill: #fdfbfc;
      }

      .cls-19 {
        fill: #6089a4;
      }

      .cls-20 {
        fill: #5b849e;
      }

      .cls-21 {
        fill: #e2eef3;
      }

      .cls-22 {
        fill: #85b1c4;
      }

      .cls-23 {
        fill: #5985a1;
      }

      .cls-24 {
        fill: #0c1c28;
      }

      .cls-25 {
        fill: #8db6c9;
      }

      .cls-26 {
        fill: #fdfcfd;
      }

      .cls-27 {
        fill: #fdfdfe;
      }

      .cls-28 {
        fill: #fcfdfd;
      }

      .cls-29 {
        fill: #89b8cf;
      }

      .cls-30 {
        fill: #5c859f;
      }

      .cls-31 {
        fill: #5c87a1;
      }

      .cls-32 {
        fill: #5986a1;
      }

      .cls-33 {
        fill: #789eb9;
      }

      .cls-34 {
        fill: #fcfcfc;
      }

      .cls-35 {
        fill: #051925;
      }
    </style>
  </defs>
  <g id="Layer_1-2" data-name="Layer 1">
    <g>
      <path class="cls-3" d="M132.37,4.22h322.37c21.64,0,39.21,17.57,39.21,39.21v332.51c0,67.08-54.46,121.54-121.54,121.54H41.5c-21.64,0-39.21-17.57-39.21-39.21V134.3C2.28,62.51,60.57,4.22,132.37,4.22Z"/>
      <path class="cls-13" d="M.76,225.99c-.24-2.67-.48-5.34-.72-8.01,2.33-40.92.22-82.63,0-123.62C3.3,43.93,34.69,9.61,84.22.02c27.41,0,54.83-.03,82.24-.02,67.55.02,135.11.07,202.66.04,3.9,0,7.3.89,10.18,3.55,3.74,4.8,2.26,10.43,2.31,15.74.09,9.43-2.97,12.4-12.31,12.39-58.04-.07-116.08-.22-174.11-.22-35.91,0-71.83-.28-107.72.48-27.95.6-52.63,24.55-54.9,52.44-.99,12.12-.73,24.35-.77,36.53-.11,33.92-.06,67.85-.12,101.78-.01,7.18-3.36,10.48-10.43,10.53-4.37.03-8.74-.04-13.11-.06-3.64-1.19-5.91-3.79-7.37-7.21Z"/>
      <path class="cls-18" d="M496.35,410.78c-5.71,22.43-12.11,42.59-28.6,59.67-16.35,16.94-36.59,26.39-59.74,29.55-53.59-2.67-107.96-.12-161.62-.11-55.65,0-111.29,0-166.94.01-1.26-.03-2.52-.05-3.78-.08-6.75-4.18-8.2-10.43-7.61-17.9.39-4.92-.26-9.93-.45-14.9.02-.53.08-1.05.05-1.58-1.54-21.97-22.92-44.75-46.13-49.16-4.78-1.33-9.56-2.66-14.34-3.99-4.79-3.35-7.04-7.93-6.83-13.79.06-1.55-.22-3.11-.34-4.67.08-8.33.24-16.66.22-24.99-.03-15.87-.16-31.75-.25-47.62.23-11.79.45-23.57.68-35.36,1.35-1.85,2.7-3.7,4.05-5.55,4.67-.58,9.33-1.52,14.02-1.65,9.85-.26,13.06,3.15,13.05,13.05-.03,35.13,0,70.26-.11,105.39-.02,5.07,1.63,8.36,6.63,10.42,22.5,9.26,37.09,25.25,41.59,49.71,1.82,9.89,4.19,11.66,14.07,11.66,92.25.01,184.51.01,276.76.01,10.07,0,20.15.23,30.22-.06,17.76-.51,33.1-6.83,45.08-20.21,12.73-14.21,18.92-30.9,18.88-50.08-.11-49.58.05-99.16.04-148.73,0-33.14-.07-66.28-.16-99.42-.03-10.53-6.33-15.81-16.75-14.14-2.61.42-5.19,1.08-7.77,1.65-19.07,4.17-36.57,1.12-52.06-11.27l5.44-13.34c14.41,11.96,34.71,15.89,52.06,7.87,8.94-4.13,13.71-11.64,21.39-17.16,6.79-4.87,14.12-4.27,22-3.5,3.8,1.77,6.33,4.61,7.34,8.73.06,27.28.2,54.56.18,81.85-.06,73.24-.18,146.47-.28,219.71Z"/>
      <path class="cls-14" d="M388.22,126.63c-9.27,3.38-21.65,3.56-18.96-10.49.87-4.56,4.02-8.86,8.5-10.41,7.12-2.47,11.43,2.91,15.91,7.56-1.81,4.45-3.63,8.89-5.44,13.34Z"/>
      <path class="cls-30" d="M10.93,444.98c1.63-1.31,3.26-2.62,4.89-3.92,12.62,4.91,25.31,19.67,32.79,31.05-.34,2.59-.68,5.19-1.02,7.78-5.08,3.72-7.57,3.72-12.7,0-1.06-.77-2.09-1.57-3.14-2.35-6.36-7.26-12.78-14.47-19.07-21.79-2.72-3.16-3.21-6.84-1.74-10.76Z"/>
      <path class="cls-31" d="M461.92,23.44c7.16,8.45,14.42,16.82,21.4,25.4,1.6,1.97,2.26,4.7,3.35,7.09-1.07,2.63-2.13,5.25-3.2,7.88-12.11,4.31-21.82-15.96-28.45-23.56-3.74-4.28-9.97-9.15-6.81-15.33,3.18-6.21,8.78-3.9,13.7-1.47Z"/>
      <path class="cls-6" d="M220.54,387.89c9.19-8.78,18.08-17.27,27.23-26.01,20.73,25.12,55.04,39.54,86.88,26,14.59-6.2,24.71-21.33,22.11-37.44-3.2-19.89-21.08-26.57-38.16-31.31-35.18-9.75-77.71-16.52-91.12-55.84-10.72-31.45,4.79-63.4,32.4-79.92,19.54-11.7,42.91-14.55,65.14-10.72,23.33,4.02,41.13,16.33,58.91,31.15-9.62,9.93-18.32,18.91-26.93,27.8-15.12-13.55-30.92-24.11-52.19-22.92-16.17.9-35.01,7.54-40.23,24.45-13.24,42.88,59.39,46.12,84.41,55.96,30.88,12.15,51.22,42.32,46.22,76.04-5.27,35.59-35.54,57.8-69.39,63.37-40.95,6.75-78.62-10.04-105.28-40.61Z"/>
      <path class="cls-7" d="M125.7,68.85c9.19-4.1,25.81-.91,36-.91,2.62,19.36.32,40.57.32,60.13,0,19.23,0,38.46,0,57.69,0,39.2,0,78.39,0,117.59,0,32.47,6.41,72.24-14.29,100.07-8.53,11.47-20.49,19.9-34.27,23.76-9.1,2.55-12.87,3.8-17.08-5.01-3.75-7.83-8.54-16.04-10.93-24.35,21.71-3.62,37.09-13.78,39.8-37.09,3.19-27.52.81-56.73.41-84.4,2.15-69,.4-138.44.05-207.48Z"/>
      <path class="cls-7" d="M293.98,100.7c-.53-41.51,65.1-41.11,63.91.22-1.19,41.07-63.38,41.18-63.91-.22Z"/>
      <path class="cls-20" d="M431.26,304.53c0,18.96,0,37.92,0,56.89,0,8.31,5.56,42.35-7.45,42.84-14.37.55-8.49-36.61-8.49-45.36,0-18.52,0-37.05,0-55.57,0-18.52,0-37.05,0-55.57,0-8.7-5.79-43.06,8.36-42.34,13.27.68,7.56,34.14,7.56,42.95,0,18.72,0,37.43,0,56.15h.02Z"/>
      <path class="cls-8" d="M205.98,293.81c0,15.12,0,30.23,0,45.35,0,7.44,4.11,29.57-8.55,29.21-12.32-.35-7.91-23.49-7.87-31.06.08-15.3.21-30.61.26-45.91.05-14.68.06-29.37.07-44.05,0-7.33-4.18-27.95,6.91-29.06,13.06-1.31,9.16,20.69,9.17,28.01,0,15.84,0,31.67,0,47.51h.02Z"/>
      <path class="cls-23" d="M229.05,83.85c-14.04,0-28.09.01-42.13,0-6.05,0-8.97-2.49-8.98-7.52-.01-5.54,3.1-8.56,9.05-8.57,28.22-.03,56.44-.04,84.66-.03,5.52,0,9.13,3.39,9.02,8.32-.11,4.76-3.61,7.81-9.09,7.82-14.18.02-28.35,0-42.53,0v-.02Z"/>
      <path class="cls-26" d="M238.98,121.1c-7.78,0-44.92,5.94-40.4-10.64,3.27-12.02,33.36-6.48,42.76-6.46,8.47.01,39.37-5.41,38.84,8.94-.51,13.74-32.73,8.13-41.2,8.13v.04Z"/>
      <path class="cls-13" d="M399.26,70.99c9.33-14.96,33.97-14.32,35.68,6.15.67,8.08-4.83,16.39-12.46,19.05-10.56,3.68-17.92-3.43-23.98-10.95,0-.21-.03-.41-.09-.61.29-4.55.57-9.1.86-13.65Z"/>
      <path class="cls-13" d="M84.17,303.31c15.65,8.4,12.89,32.98-5.66,35.35-8.29,1.06-16.11-4.02-19.1-11.69-3.97-10.18,1.61-19.36,10.31-24.61,4.94-1.49,9.78-1.63,14.45.96Z"/>
      <path class="cls-18" d="M69.87,132.4c-15.08-9.16-15.95-35.61,5.6-36.67,8.12-.4,15.92,5.15,18.43,12.85,3.37,10.34-3.3,16.28-9.84,22.85-4.73.32-9.46.65-14.19.97Z"/>
      <path class="cls-2" d="M83.47,234.93c1.05.79,2.08,1.63,3.16,2.36,11.96,8.11,10.91,26.32-3.1,32.8-4.72-.06-9.44-.12-14.15-.17-6.94-3.68-11.52-9.1-11.35-17.26.16-7.74,3.87-13.59,10.91-17.14,4.84-.19,9.68-.39,14.52-.58Z"/>
      <path class="cls-1" d="M69.12,200.02c-13.89-7.09-15.05-23.64-2.27-32.63.94-.66,1.95-1.21,2.92-1.82,5.3-1.4,10.34-.47,15.24,1.71,13.62,7.2,12.86,25.36-1.56,33.45-4.77-.24-9.55-.48-14.32-.72Z"/>
      <path class="cls-26" d="M239.34,164.75c-11.15,2.22-23.45,1.01-34.81,1.01-7.41,0-23.39,3.6-26.13-6.08-2.9-10.26,9.22-10.62,15.92-10.63,13.96-.03,27.92.03,41.87.05,5.14,2.26,7.08,4.47,6.42,8.9-.35,2.36-2.14,4.51-3.28,6.75Z"/>
      <path class="cls-32" d="M239.34,164.75c1.14-2.24,2.92-4.39,3.28-6.75.66-4.42-1.27-6.64-6.42-8.9,12.31.02,24.62.03,36.93.06,6.84.02,22.52-2.8,23.63,7.39,1.17,10.71-13.24,9.04-19.82,9.04-11.71,0-26.35,2.27-37.6-.84Z"/>
      <path class="cls-26" d="M385.78,251.55c10.08,4.65,6.68,15.28-3.32,16.26-13.65,1.35-28.28-.25-42.01-.38-8.31-7.25-2.83-15.06,6.43-15.94,12.64-1.2,26.19.06,38.89.06Z"/>
      <path class="cls-11" d="M210.73,425.88c5.3-.11,12.68-1.72,16.76,2.5,4.26,4.41,1.9,10.83-3.1,13.49-16.58,0-33.15,0-48.74,0,.84-5.54,1.56-10.32,2.3-15.19,10.7,0,22.26,1.23,32.78-.8Z"/>
      <path class="cls-5" d="M287.69,328.94c5.93,1.68,10.71,5.91,7.76,12.36-3.26,7.14-12.77,5.19-19.19,5.21-6.42.01-16.41,2.05-22.25-.42-6.72-2.84-7.31-10.59-2.47-15.55,2.69-.46,5.38-1.26,8.08-1.32,9.35-.23,18.71-.21,28.07-.28Z"/>
      <path class="cls-25" d="M69.12,200.02c4.77.24,9.55.48,14.32.72,0,11.4.02,22.8.03,34.19-4.84.19-9.68.39-14.52.58.14-6.44.35-12.87.39-19.31.03-5.39-.14-10.79-.22-16.18Z"/>
      <path class="cls-17" d="M85,167.28c-4.9-2.18-9.94-3.11-15.24-1.71.03-11.06.07-22.11.1-33.17,4.73-.32,9.46-.65,14.19-.97-.09,11.16-.21,22.31-.22,33.47,0,.79.76,1.59,1.17,2.38Z"/>
      <path class="cls-29" d="M69.39,269.91c4.72.06,9.44.12,14.15.17.06,10.05.11,20.11.2,30.16,0,1.02.28,2.04.43,3.06-4.67-2.6-9.51-2.45-14.45-.96-.09-9.76-.18-19.52-.27-29.28,0-1.05-.04-2.11-.07-3.16Z"/>
      <path class="cls-28" d="M208.49,195.72c-.1,14.61-21.35,15.56-23.1,1.23-1.99-16.23,23.22-17.65,23.1-1.23Z"/>
      <path class="cls-5" d="M434.49,428.9c.16,15.08-22.41,15.11-22.82.37-.43-15.4,22.66-15.49,22.82-.37Z"/>
      <path class="cls-5" d="M86.05,69.67c.07,14.94-22.89,14.87-23.08.16-.19-15.01,23.01-15.38,23.08-.16Z"/>
      <path class="cls-27" d="M434.42,183.54c0,13.97-21.14,14.62-22.5.95-1.53-15.48,22.49-17.23,22.5-.95Z"/>
      <path class="cls-12" d="M74.85,371.01c.03,14.2-21.22,14.25-21.11.19.1-13.95,21.08-14.71,21.11-.19Z"/>
      <path class="cls-34" d="M421.68,35.35c-13.81-.13-12.77-21.66.58-21.39,13.37.27,13.25,21.52-.58,21.39Z"/>
      <path class="cls-15" d="M385.78,251.55c-12.71,0-26.25-1.26-38.89-.06-9.25.88-14.74,8.7-6.43,15.94-6.93.18-19.81,2.46-19.29-8.33.47-9.82,12.38-7.92,19.21-8.19,15.08.01,30.17.02,45.25.03.06.2.11.4.16.6Z"/>
      <path class="cls-21" d="M210.73,425.88c-10.52,2.02-22.08.8-32.78.8-.74,4.87-1.46,9.65-2.3,15.19,15.59,0,32.17,0,48.74,0-1.12.3-2.24.85-3.36.85-18.27-.02-36.54-.11-54.81-.18-5.08-4-6.01-8.93-2.24-13.06,1.29-1.41,3.07-2.37,4.62-3.54.5-.13,1-.26,1.5-.38.3,0,.6-.02.91-.03,11.53.04,23.05.08,34.58.14,1.72,0,3.43.14,5.14.22Z"/>
      <path class="cls-19" d="M381.41,148.31c12.23.04,13.04,18.44.35,18.26-11.96-.17-12.29-18.29-.35-18.26Z"/>
      <path class="cls-10" d="M206.94,398.52c.07,11.06-16.3,12.53-17.72,1.52-1.65-12.83,17.64-14.18,17.72-1.52Z"/>
      <path class="cls-22" d="M398.4,84.65c.06.2.09.4.09.61-9.92-.02-22.69,2.11-28.32-8.44-1.98-3.72-2.47-7.87,1.92-10.27,5.47-2.99,9.77,2.27,13.69,5.26-7.15,13.16.6,12.82,12.62,12.84Z"/>
      <path class="cls-4" d="M398.4,84.65c-12.02-.03-19.77.32-12.62-12.84,4.49-.27,8.98-.54,13.47-.81-.29,4.55-.57,9.1-.86,13.65Z"/>
      <path class="cls-33" d="M168.6,425.94c-1.56,1.17-3.34,2.13-4.62,3.54-3.76,4.13-2.84,9.06,2.24,13.06-6.57.17-16.09.29-15.06-9.14.99-9.05,10.85-7.53,17.43-7.47Z"/>
      <path class="cls-24" d="M125.7,68.85c.34,69.04,2.1,138.47-.05,207.48-.28-1.38-.8-2.75-.8-4.13-.04-67.04-.04-134.08-.04-201.11,0-.93.02-1.85.05-2.78,0-.08.14-.16.21-.24.21.26.43.52.64.78Z"/>
      <path class="cls-16" d="M171.01,425.53c-.3,0-.6.02-.91.03-2.57-.26-5.15-.52-7.72-.78,0-.09,0-.18.01-.27h60.87v.54c-17.43,0-34.83,0-52.25.48Z"/>
      <path class="cls-35" d="M385.62,250.95c-15.08-.01-30.17-.02-45.25-.03,4.17-1.66,45.19-1.53,45.25.03Z"/>
      <path class="cls-9" d="M287.69,328.94c-9.36.07-18.71.05-28.07.28-2.7.07-5.39.86-8.08,1.32,9.39-5.85,26.88-2.51,37.84-2.51-.33.68-.9.98-1.69.91Z"/>
    </g>
  </g>
</svg>